<svg width="24" height="24" viewBox="0 0 24 24" fill="none" xmlns="http://www.w3.org/2000/svg">
<g clip-path="url(#clip0_14384_2249)">
<path d="M12 20.25C9.3 20.25 6.675 18.9 5.1 16.5H9V15H3V21H4.5V18.225C6.375 20.475 9.075 21.75 12 21.75V20.25Z" fill="#5A1447"/>
<path d="M23.25 17.25V15.75H21.675C21.6 15.3 21.375 14.85 21.15 14.4L22.275 13.275L21.225 12.225L20.1 13.35C19.725 13.125 19.275 12.9 18.75 12.825V11.25H17.25V12.825C16.8 12.9 16.35 13.125 15.9 13.35L14.775 12.225L13.725 13.275L14.85 14.4C14.625 14.775 14.4 15.225 14.325 15.75H12.75V17.25H14.325C14.4 17.7 14.625 18.15 14.85 18.6L13.725 19.725L14.775 20.775L15.9 19.65C16.275 19.875 16.725 20.1 17.25 20.175V21.75H18.75V20.175C19.2 20.1 19.65 19.875 20.1 19.65L21.225 20.775L22.275 19.725L21.15 18.6C21.375 18.225 21.6 17.775 21.675 17.25H23.25ZM18 18.75C16.725 18.75 15.75 17.775 15.75 16.5C15.75 15.225 16.725 14.25 18 14.25C19.275 14.25 20.25 15.225 20.25 16.5C20.25 17.775 19.275 18.75 18 18.75Z" fill="#5A1447"/>
<path d="M15 7.5H18.9C16.425 3.675 11.325 2.625 7.5 5.1C5.175 6.6 3.75 9.225 3.75 12H2.25C2.25 6.6 6.6 2.25 12 2.25C14.925 2.25 17.625 3.525 19.5 5.775V3H21V9H15V7.5Z" fill="#5A1447"/>
</g>
<defs>
<clipPath id="clip0_14384_2249">
<rect width="24" height="24" fill="white"/>
</clipPath>
</defs>
</svg>
