<svg width="24" height="25" viewBox="0 0 24 25" fill="none" xmlns="http://www.w3.org/2000/svg">
<g clip-path="url(#clip0_14384_2243)">
<path d="M16.5 20.1925L14.5575 18.25L13.5 19.3075L16.5 22.3075L22.5 16.3075L21.4425 15.25L16.5 20.1925Z" fill="#5A1447"/>
<path d="M12 13.75C12.8284 13.75 13.5 13.0784 13.5 12.25C13.5 11.4216 12.8284 10.75 12 10.75C11.1716 10.75 10.5 11.4216 10.5 12.25C10.5 13.0784 11.1716 13.75 12 13.75Z" fill="#5A1447"/>
<path d="M12 16.75C11.11 16.75 10.24 16.4861 9.49994 15.9916C8.75991 15.4971 8.18314 14.7943 7.84254 13.9721C7.50195 13.1498 7.41283 12.245 7.58647 11.3721C7.7601 10.4992 8.18869 9.69736 8.81802 9.06802C9.44736 8.43869 10.2492 8.0101 11.1221 7.83647C11.995 7.66283 12.8998 7.75195 13.7221 8.09254C14.5443 8.43314 15.2471 9.00991 15.7416 9.74994C16.2361 10.49 16.5 11.36 16.5 12.25C16.4987 13.4431 16.0242 14.5869 15.1805 15.4305C14.3369 16.2742 13.1931 16.7487 12 16.75ZM12 9.25C11.4067 9.25 10.8266 9.42595 10.3333 9.75559C9.83994 10.0852 9.45543 10.5538 9.22836 11.102C9.0013 11.6501 8.94189 12.2533 9.05765 12.8353C9.1734 13.4172 9.45912 13.9518 9.87868 14.3713C10.2982 14.7909 10.8328 15.0766 11.4147 15.1924C11.9967 15.3081 12.5999 15.2487 13.1481 15.0216C13.6962 14.7946 14.1648 14.4101 14.4944 13.9167C14.8241 13.4234 15 12.8433 15 12.25C14.9991 11.4546 14.6828 10.6921 14.1203 10.1297C13.5579 9.56725 12.7954 9.2509 12 9.25Z" fill="#5A1447"/>
<path d="M21 12.25C21 10.47 20.4722 8.72991 19.4832 7.24987C18.4943 5.76983 17.0887 4.61628 15.4442 3.93509C13.7996 3.2539 11.99 3.07567 10.2442 3.42294C8.49836 3.7702 6.89472 4.62737 5.63604 5.88604C4.37737 7.14472 3.5202 8.74836 3.17294 10.4942C2.82567 12.24 3.0039 14.0496 3.68509 15.6942C4.36628 17.3387 5.51983 18.7443 6.99987 19.7332C8.47991 20.7222 10.22 21.25 12 21.25V19.75C10.5166 19.75 9.0666 19.3101 7.83323 18.486C6.59986 17.6619 5.63856 16.4906 5.07091 15.1201C4.50325 13.7497 4.35473 12.2417 4.64411 10.7868C4.9335 9.33197 5.64781 7.9956 6.6967 6.9467C7.7456 5.89781 9.08197 5.1835 10.5368 4.89411C11.9917 4.60473 13.4997 4.75325 14.8701 5.32091C16.2406 5.88856 17.4119 6.84986 18.236 8.08323C19.0601 9.3166 19.5 10.7666 19.5 12.25H21Z" fill="#5A1447"/>
</g>
<defs>
<clipPath id="clip0_14384_2243">
<rect width="24" height="24" fill="white" transform="translate(0 0.25)"/>
</clipPath>
</defs>
</svg>
